<mxfile host="app.diagrams.net" modified="2023-04-03T13:37:42.804Z" agent="Mozilla/5.0 (X11; Linux x86_64) AppleWebKit/537.36 (KHTML, like Gecko) Chrome/111.0.0.0 Safari/537.36" etag="I21ysiv68s0KBb5xvzQI" version="21.1.4" type="github">
  <diagram name="Page-1" id="fkJfNyNkWkKWQ3kY6hYl">
    <mxGraphModel dx="3185" dy="2477" grid="1" gridSize="10" guides="1" tooltips="1" connect="1" arrows="1" fold="1" page="1" pageScale="1" pageWidth="827" pageHeight="1169" math="0" shadow="0">
      <root>
        <mxCell id="0" />
        <mxCell id="1" parent="0" />
        <mxCell id="iQ9Q4hPy6sdmXpYKyvZ4-1" value="front" style="rounded=0;whiteSpace=wrap;html=1;" parent="1" vertex="1">
          <mxGeometry x="544" y="-270" width="170" height="110" as="geometry" />
        </mxCell>
        <mxCell id="iQ9Q4hPy6sdmXpYKyvZ4-2" value="back&lt;br&gt;event GateWay&lt;br&gt;&lt;div style=&quot;color: rgb(187, 187, 187); background-color: rgb(38, 35, 53); font-family: &amp;quot;Droid Sans Mono&amp;quot;, &amp;quot;monospace&amp;quot;, monospace; font-size: 14px; line-height: 19px;&quot;&gt;@EventUserDecorator()&lt;/div&gt;&lt;div style=&quot;font-family: &amp;quot;Droid Sans Mono&amp;quot;, &amp;quot;monospace&amp;quot;, monospace; font-size: 14px; line-height: 19px;&quot;&gt;&lt;span style=&quot;background-color: rgb(255, 255, 255);&quot;&gt;recupere l&#39;id du user&lt;/span&gt;&lt;/div&gt;" style="whiteSpace=wrap;html=1;aspect=fixed;" parent="1" vertex="1">
          <mxGeometry x="519" y="370" width="220" height="220" as="geometry" />
        </mxCell>
        <mxCell id="iQ9Q4hPy6sdmXpYKyvZ4-5" value="" style="endArrow=classic;html=1;rounded=0;entryX=0.5;entryY=0;entryDx=0;entryDy=0;" parent="1" target="iQ9Q4hPy6sdmXpYKyvZ4-2" edge="1">
          <mxGeometry width="50" height="50" relative="1" as="geometry">
            <mxPoint x="629" y="270" as="sourcePoint" />
            <mxPoint x="620" y="570" as="targetPoint" />
          </mxGeometry>
        </mxCell>
        <mxCell id="iQ9Q4hPy6sdmXpYKyvZ4-7" value="send" style="swimlane;whiteSpace=wrap;html=1;" parent="1" vertex="1">
          <mxGeometry x="544" y="180" width="160" height="90" as="geometry" />
        </mxCell>
        <mxCell id="iQ9Q4hPy6sdmXpYKyvZ4-9" value="Event : choose route&lt;br&gt;Payload : object" style="text;html=1;align=center;verticalAlign=middle;resizable=0;points=[];autosize=1;strokeColor=none;fillColor=none;" parent="iQ9Q4hPy6sdmXpYKyvZ4-7" vertex="1">
          <mxGeometry x="10" y="30" width="130" height="40" as="geometry" />
        </mxCell>
        <mxCell id="iQ9Q4hPy6sdmXpYKyvZ4-12" value="Event Client -&amp;gt; Server" style="swimlane;whiteSpace=wrap;html=1;" parent="1" vertex="1">
          <mxGeometry x="40" y="200" width="380" height="400" as="geometry" />
        </mxCell>
        <mxCell id="iQ9Q4hPy6sdmXpYKyvZ4-15" value="game.*" style="text;html=1;align=center;verticalAlign=middle;resizable=0;points=[];autosize=1;strokeColor=none;fillColor=none;" parent="iQ9Q4hPy6sdmXpYKyvZ4-12" vertex="1">
          <mxGeometry x="27" y="50" width="60" height="30" as="geometry" />
        </mxCell>
        <mxCell id="iQ9Q4hPy6sdmXpYKyvZ4-19" value="game.join( void || gameId, ?option(map))" style="text;html=1;align=center;verticalAlign=middle;resizable=0;points=[];autosize=1;strokeColor=none;fillColor=none;" parent="iQ9Q4hPy6sdmXpYKyvZ4-12" vertex="1">
          <mxGeometry x="26" y="80" width="240" height="30" as="geometry" />
        </mxCell>
        <mxCell id="iQ9Q4hPy6sdmXpYKyvZ4-21" value="game.play" style="text;html=1;align=center;verticalAlign=middle;resizable=0;points=[];autosize=1;strokeColor=none;fillColor=none;" parent="iQ9Q4hPy6sdmXpYKyvZ4-12" vertex="1">
          <mxGeometry x="27" y="110" width="80" height="30" as="geometry" />
        </mxCell>
        <mxCell id="iQ9Q4hPy6sdmXpYKyvZ4-22" value="game.play.move (up | down)" style="text;html=1;align=center;verticalAlign=middle;resizable=0;points=[];autosize=1;strokeColor=none;fillColor=none;" parent="iQ9Q4hPy6sdmXpYKyvZ4-12" vertex="1">
          <mxGeometry x="61" y="140" width="170" height="30" as="geometry" />
        </mxCell>
        <mxCell id="iQ9Q4hPy6sdmXpYKyvZ4-23" value="game.play.quit (void)" style="text;html=1;align=center;verticalAlign=middle;resizable=0;points=[];autosize=1;strokeColor=none;fillColor=none;" parent="iQ9Q4hPy6sdmXpYKyvZ4-12" vertex="1">
          <mxGeometry x="61" y="170" width="130" height="30" as="geometry" />
        </mxCell>
        <mxCell id="SIauwAjxDsFDXvZKgyOY-30" value="game.ready" style="text;html=1;align=center;verticalAlign=middle;resizable=0;points=[];autosize=1;strokeColor=none;fillColor=none;" vertex="1" parent="iQ9Q4hPy6sdmXpYKyvZ4-12">
          <mxGeometry x="27" y="200" width="90" height="30" as="geometry" />
        </mxCell>
        <mxCell id="iQ9Q4hPy6sdmXpYKyvZ4-24" value="" style="endArrow=classic;html=1;rounded=0;exitX=0.5;exitY=1;exitDx=0;exitDy=0;" parent="1" source="iQ9Q4hPy6sdmXpYKyvZ4-2" edge="1">
          <mxGeometry width="50" height="50" relative="1" as="geometry">
            <mxPoint x="570" y="680" as="sourcePoint" />
            <mxPoint x="630" y="780" as="targetPoint" />
          </mxGeometry>
        </mxCell>
        <mxCell id="iQ9Q4hPy6sdmXpYKyvZ4-79" value="" style="endArrow=classic;html=1;rounded=0;exitX=0.412;exitY=-0.002;exitDx=0;exitDy=0;exitPerimeter=0;" parent="1" edge="1" source="iQ9Q4hPy6sdmXpYKyvZ4-58">
          <mxGeometry width="50" height="50" relative="1" as="geometry">
            <mxPoint x="930" y="850" as="sourcePoint" />
            <mxPoint x="715" y="-229" as="targetPoint" />
            <Array as="points">
              <mxPoint x="925" y="-229" />
            </Array>
          </mxGeometry>
        </mxCell>
        <mxCell id="iQ9Q4hPy6sdmXpYKyvZ4-81" value="" style="endArrow=classic;html=1;rounded=0;exitX=0.5;exitY=1;exitDx=0;exitDy=0;" parent="1" source="iQ9Q4hPy6sdmXpYKyvZ4-1" target="iQ9Q4hPy6sdmXpYKyvZ4-7" edge="1">
          <mxGeometry width="50" height="50" relative="1" as="geometry">
            <mxPoint x="620" y="150" as="sourcePoint" />
            <mxPoint x="670" y="100" as="targetPoint" />
          </mxGeometry>
        </mxCell>
        <mxCell id="iQ9Q4hPy6sdmXpYKyvZ4-91" value="Event Server -&amp;gt; Client" style="swimlane;whiteSpace=wrap;html=1;" parent="1" vertex="1">
          <mxGeometry x="990" y="160" width="380" height="400" as="geometry" />
        </mxCell>
        <mxCell id="iQ9Q4hPy6sdmXpYKyvZ4-92" value="game.*" style="text;html=1;align=left;verticalAlign=middle;resizable=0;points=[];autosize=1;strokeColor=none;fillColor=none;" parent="iQ9Q4hPy6sdmXpYKyvZ4-91" vertex="1">
          <mxGeometry x="26" y="50" width="60" height="30" as="geometry" />
        </mxCell>
        <mxCell id="iQ9Q4hPy6sdmXpYKyvZ4-101" value="game.update()&lt;span style=&quot;white-space: pre;&quot;&gt; &lt;/span&gt;" style="text;html=1;align=left;verticalAlign=middle;resizable=0;points=[];autosize=1;strokeColor=none;fillColor=none;" parent="iQ9Q4hPy6sdmXpYKyvZ4-91" vertex="1">
          <mxGeometry x="20" y="90" width="100" height="30" as="geometry" />
        </mxCell>
        <mxCell id="iQ9Q4hPy6sdmXpYKyvZ4-102" value="&lt;ul&gt;&lt;li&gt;Ball Pos&lt;/li&gt;&lt;li&gt;Score&lt;/li&gt;&lt;li&gt;Player Pos&lt;/li&gt;&lt;li&gt;EndGame&lt;/li&gt;&lt;li&gt;status&lt;/li&gt;&lt;/ul&gt;" style="text;html=1;align=left;verticalAlign=middle;resizable=0;points=[];autosize=1;strokeColor=none;fillColor=none;" parent="iQ9Q4hPy6sdmXpYKyvZ4-91" vertex="1">
          <mxGeometry x="26" y="105" width="120" height="110" as="geometry" />
        </mxCell>
        <mxCell id="iQ9Q4hPy6sdmXpYKyvZ4-103" value="game.sound( soundId )&lt;span style=&quot;white-space: pre;&quot;&gt; &lt;/span&gt;" style="text;html=1;align=left;verticalAlign=middle;resizable=0;points=[];autosize=1;strokeColor=none;fillColor=none;" parent="iQ9Q4hPy6sdmXpYKyvZ4-91" vertex="1">
          <mxGeometry x="20" y="199" width="160" height="30" as="geometry" />
        </mxCell>
        <mxCell id="SIauwAjxDsFDXvZKgyOY-3" value="Game Module" style="swimlane;whiteSpace=wrap;html=1;" vertex="1" parent="1">
          <mxGeometry x="-450" y="810" width="2080" height="570" as="geometry" />
        </mxCell>
        <mxCell id="iQ9Q4hPy6sdmXpYKyvZ4-30" value="GameCluster" style="swimlane;whiteSpace=wrap;html=1;startSize=23;" parent="SIauwAjxDsFDXvZKgyOY-3" vertex="1">
          <mxGeometry x="899.5" y="110" width="281" height="303.5" as="geometry" />
        </mxCell>
        <mxCell id="iQ9Q4hPy6sdmXpYKyvZ4-34" value="create" style="text;html=1;strokeColor=none;fillColor=none;align=left;verticalAlign=middle;whiteSpace=wrap;rounded=0;" parent="iQ9Q4hPy6sdmXpYKyvZ4-30" vertex="1">
          <mxGeometry x="20" y="88.5" width="60" height="30" as="geometry" />
        </mxCell>
        <mxCell id="iQ9Q4hPy6sdmXpYKyvZ4-36" value="modify" style="text;html=1;strokeColor=none;fillColor=none;align=left;verticalAlign=middle;whiteSpace=wrap;rounded=0;" parent="iQ9Q4hPy6sdmXpYKyvZ4-30" vertex="1">
          <mxGeometry x="20" y="113.5" width="60" height="30" as="geometry" />
        </mxCell>
        <mxCell id="iQ9Q4hPy6sdmXpYKyvZ4-37" value="findPublic" style="text;html=1;strokeColor=none;fillColor=none;align=left;verticalAlign=middle;whiteSpace=wrap;rounded=0;" parent="iQ9Q4hPy6sdmXpYKyvZ4-30" vertex="1">
          <mxGeometry x="20" y="137.5" width="60" height="29" as="geometry" />
        </mxCell>
        <mxCell id="iQ9Q4hPy6sdmXpYKyvZ4-38" value="findGameId" style="text;html=1;strokeColor=none;fillColor=none;align=left;verticalAlign=middle;whiteSpace=wrap;rounded=0;" parent="iQ9Q4hPy6sdmXpYKyvZ4-30" vertex="1">
          <mxGeometry x="20" y="166.5" width="60" height="30" as="geometry" />
        </mxCell>
        <mxCell id="iQ9Q4hPy6sdmXpYKyvZ4-39" value="destroy" style="text;html=1;strokeColor=none;fillColor=none;align=left;verticalAlign=middle;whiteSpace=wrap;rounded=0;" parent="iQ9Q4hPy6sdmXpYKyvZ4-30" vertex="1">
          <mxGeometry x="20" y="256.5" width="60" height="30" as="geometry" />
        </mxCell>
        <mxCell id="iQ9Q4hPy6sdmXpYKyvZ4-41" value="Method" style="text;html=1;strokeColor=none;fillColor=none;align=left;verticalAlign=middle;whiteSpace=wrap;rounded=0;" parent="iQ9Q4hPy6sdmXpYKyvZ4-30" vertex="1">
          <mxGeometry x="20" y="69.5" width="100" height="20" as="geometry" />
        </mxCell>
        <mxCell id="iQ9Q4hPy6sdmXpYKyvZ4-55" value="startGame" style="text;html=1;strokeColor=none;fillColor=none;align=left;verticalAlign=middle;whiteSpace=wrap;rounded=0;" parent="iQ9Q4hPy6sdmXpYKyvZ4-30" vertex="1">
          <mxGeometry x="20" y="226.5" width="60" height="30" as="geometry" />
        </mxCell>
        <mxCell id="iQ9Q4hPy6sdmXpYKyvZ4-62" value="Private : map&amp;lt;gameId, game&amp;gt;" style="text;html=1;strokeColor=none;fillColor=none;align=left;verticalAlign=middle;whiteSpace=wrap;rounded=0;" parent="iQ9Q4hPy6sdmXpYKyvZ4-30" vertex="1">
          <mxGeometry x="20" y="28" width="180" height="50" as="geometry" />
        </mxCell>
        <mxCell id="iQ9Q4hPy6sdmXpYKyvZ4-76" value="findAll" style="text;html=1;strokeColor=none;fillColor=none;align=left;verticalAlign=middle;whiteSpace=wrap;rounded=0;" parent="iQ9Q4hPy6sdmXpYKyvZ4-30" vertex="1">
          <mxGeometry x="20" y="196.5" width="60" height="30" as="geometry" />
        </mxCell>
        <mxCell id="iQ9Q4hPy6sdmXpYKyvZ4-4" value="Game.service" style="swimlane;whiteSpace=wrap;html=1;" parent="SIauwAjxDsFDXvZKgyOY-3" vertex="1">
          <mxGeometry x="510" y="110" width="330" height="270" as="geometry">
            <mxRectangle x="600" y="270" width="120" height="30" as="alternateBounds" />
          </mxGeometry>
        </mxCell>
        <mxCell id="iQ9Q4hPy6sdmXpYKyvZ4-28" value="methode :&amp;nbsp;" style="text;html=1;strokeColor=none;fillColor=none;align=center;verticalAlign=middle;whiteSpace=wrap;rounded=0;" parent="iQ9Q4hPy6sdmXpYKyvZ4-4" vertex="1">
          <mxGeometry x="20" y="80" width="60" height="30" as="geometry" />
        </mxCell>
        <mxCell id="iQ9Q4hPy6sdmXpYKyvZ4-33" value="Dependencies [User, repository{game}]" style="text;html=1;strokeColor=none;fillColor=none;align=center;verticalAlign=middle;whiteSpace=wrap;rounded=0;" parent="iQ9Q4hPy6sdmXpYKyvZ4-4" vertex="1">
          <mxGeometry x="-10" y="40" width="266" height="30" as="geometry" />
        </mxCell>
        <mxCell id="iQ9Q4hPy6sdmXpYKyvZ4-35" value="join(userId, gameId?) return (gameId)" style="text;html=1;strokeColor=none;fillColor=none;align=center;verticalAlign=middle;whiteSpace=wrap;rounded=0;" parent="iQ9Q4hPy6sdmXpYKyvZ4-4" vertex="1">
          <mxGeometry x="6.5" y="110" width="233" height="30" as="geometry" />
        </mxCell>
        <mxCell id="iQ9Q4hPy6sdmXpYKyvZ4-40" value="saveGame()" style="text;html=1;strokeColor=none;fillColor=none;align=center;verticalAlign=middle;whiteSpace=wrap;rounded=0;" parent="iQ9Q4hPy6sdmXpYKyvZ4-4" vertex="1">
          <mxGeometry x="-13" y="163.5" width="140" height="50" as="geometry" />
        </mxCell>
        <mxCell id="iQ9Q4hPy6sdmXpYKyvZ4-63" value="updateGame()" style="text;html=1;strokeColor=none;fillColor=none;align=center;verticalAlign=middle;whiteSpace=wrap;rounded=0;" parent="iQ9Q4hPy6sdmXpYKyvZ4-4" vertex="1">
          <mxGeometry x="-13" y="140" width="150" height="26.5" as="geometry" />
        </mxCell>
        <mxCell id="iQ9Q4hPy6sdmXpYKyvZ4-58" value="class Game" style="swimlane;whiteSpace=wrap;html=1;" parent="SIauwAjxDsFDXvZKgyOY-3" vertex="1">
          <mxGeometry x="1230" y="110" width="338" height="413.5" as="geometry" />
        </mxCell>
        <mxCell id="iQ9Q4hPy6sdmXpYKyvZ4-53" value="posBall : {x as a number, y as number}&amp;nbsp;" style="text;html=1;align=left;verticalAlign=middle;resizable=0;points=[];autosize=1;strokeColor=none;fillColor=none;" parent="iQ9Q4hPy6sdmXpYKyvZ4-58" vertex="1">
          <mxGeometry x="30" y="147" width="230" height="30" as="geometry" />
        </mxCell>
        <mxCell id="iQ9Q4hPy6sdmXpYKyvZ4-51" value="&lt;br&gt;number : posP1&amp;nbsp;" style="text;html=1;align=left;verticalAlign=middle;resizable=0;points=[];autosize=1;strokeColor=none;fillColor=none;" parent="iQ9Q4hPy6sdmXpYKyvZ4-58" vertex="1">
          <mxGeometry x="30" y="77" width="110" height="40" as="geometry" />
        </mxCell>
        <mxCell id="iQ9Q4hPy6sdmXpYKyvZ4-52" value="&lt;br&gt;number : posP2&amp;nbsp;" style="text;html=1;align=left;verticalAlign=middle;resizable=0;points=[];autosize=1;strokeColor=none;fillColor=none;" parent="iQ9Q4hPy6sdmXpYKyvZ4-58" vertex="1">
          <mxGeometry x="30" y="105" width="110" height="40" as="geometry" />
        </mxCell>
        <mxCell id="iQ9Q4hPy6sdmXpYKyvZ4-54" value="timerId: number" style="text;html=1;align=left;verticalAlign=middle;resizable=0;points=[];autosize=1;strokeColor=none;fillColor=none;" parent="iQ9Q4hPy6sdmXpYKyvZ4-58" vertex="1">
          <mxGeometry x="30" y="200" width="110" height="30" as="geometry" />
        </mxCell>
        <mxCell id="iQ9Q4hPy6sdmXpYKyvZ4-64" value="privateGame : boolean&lt;br&gt;" style="text;html=1;align=left;verticalAlign=middle;resizable=0;points=[];autosize=1;strokeColor=none;fillColor=none;" parent="iQ9Q4hPy6sdmXpYKyvZ4-58" vertex="1">
          <mxGeometry x="30" y="62" width="140" height="30" as="geometry" />
        </mxCell>
        <mxCell id="iQ9Q4hPy6sdmXpYKyvZ4-65" value="enum status ( Waiting, starting, play, end)" style="text;html=1;align=left;verticalAlign=middle;resizable=0;points=[];autosize=1;strokeColor=none;fillColor=none;" parent="iQ9Q4hPy6sdmXpYKyvZ4-58" vertex="1">
          <mxGeometry x="30" y="230" width="240" height="30" as="geometry" />
        </mxCell>
        <mxCell id="iQ9Q4hPy6sdmXpYKyvZ4-73" value="velocityBall : {x as a number, y as number}&amp;nbsp;" style="text;html=1;align=left;verticalAlign=middle;resizable=0;points=[];autosize=1;strokeColor=none;fillColor=none;" parent="iQ9Q4hPy6sdmXpYKyvZ4-58" vertex="1">
          <mxGeometry x="30" y="175" width="250" height="30" as="geometry" />
        </mxCell>
        <mxCell id="SIauwAjxDsFDXvZKgyOY-11" value="GameId : number GUID" style="text;html=1;strokeColor=none;fillColor=none;align=left;verticalAlign=middle;whiteSpace=wrap;rounded=0;" vertex="1" parent="iQ9Q4hPy6sdmXpYKyvZ4-58">
          <mxGeometry x="30" y="32" width="160.5" height="36" as="geometry" />
        </mxCell>
        <mxCell id="SIauwAjxDsFDXvZKgyOY-27" value="score[2] : number" style="text;html=1;strokeColor=none;fillColor=none;align=left;verticalAlign=middle;whiteSpace=wrap;rounded=0;" vertex="1" parent="iQ9Q4hPy6sdmXpYKyvZ4-58">
          <mxGeometry x="30" y="252" width="140.5" height="30" as="geometry" />
        </mxCell>
        <mxCell id="iQ9Q4hPy6sdmXpYKyvZ4-50" value="Player[2] : player as a { Socket / User }" style="text;html=1;align=left;verticalAlign=middle;resizable=0;points=[];autosize=1;strokeColor=none;fillColor=none;" parent="iQ9Q4hPy6sdmXpYKyvZ4-58" vertex="1">
          <mxGeometry x="30" y="279" width="230" height="30" as="geometry" />
        </mxCell>
        <mxCell id="SIauwAjxDsFDXvZKgyOY-29" value="Viewer[] : Viewer as a { Socket / User }" style="text;html=1;align=left;verticalAlign=middle;resizable=0;points=[];autosize=1;strokeColor=none;fillColor=none;" vertex="1" parent="iQ9Q4hPy6sdmXpYKyvZ4-58">
          <mxGeometry x="30" y="309" width="230" height="30" as="geometry" />
        </mxCell>
        <mxCell id="SIauwAjxDsFDXvZKgyOY-32" value="server : server" style="text;html=1;align=left;verticalAlign=middle;resizable=0;points=[];autosize=1;strokeColor=none;fillColor=none;" vertex="1" parent="iQ9Q4hPy6sdmXpYKyvZ4-58">
          <mxGeometry x="32" y="339" width="100" height="30" as="geometry" />
        </mxCell>
        <mxCell id="iQ9Q4hPy6sdmXpYKyvZ4-42" value="entity Game" style="swimlane;whiteSpace=wrap;html=1;startSize=23;" parent="SIauwAjxDsFDXvZKgyOY-3" vertex="1">
          <mxGeometry x="1640" y="110" width="370" height="275" as="geometry" />
        </mxCell>
        <mxCell id="iQ9Q4hPy6sdmXpYKyvZ4-49" value="key : gameId as a string" style="text;html=1;align=left;verticalAlign=middle;resizable=0;points=[];autosize=1;strokeColor=none;fillColor=none;" parent="iQ9Q4hPy6sdmXpYKyvZ4-42" vertex="1">
          <mxGeometry x="21" y="45" width="150" height="30" as="geometry" />
        </mxCell>
        <mxCell id="iQ9Q4hPy6sdmXpYKyvZ4-56" value="score[2] :&amp;nbsp;" style="text;html=1;align=left;verticalAlign=middle;resizable=0;points=[];autosize=1;strokeColor=none;fillColor=none;" parent="iQ9Q4hPy6sdmXpYKyvZ4-42" vertex="1">
          <mxGeometry x="21" y="105" width="80" height="30" as="geometry" />
        </mxCell>
        <mxCell id="iQ9Q4hPy6sdmXpYKyvZ4-57" value="winner : winner as a User&amp;nbsp;" style="text;html=1;align=left;verticalAlign=middle;resizable=0;points=[];autosize=1;strokeColor=none;fillColor=none;" parent="iQ9Q4hPy6sdmXpYKyvZ4-42" vertex="1">
          <mxGeometry x="21" y="135" width="160" height="30" as="geometry" />
        </mxCell>
        <mxCell id="SIauwAjxDsFDXvZKgyOY-28" value="User[2] : player as a User" style="text;html=1;align=left;verticalAlign=middle;resizable=0;points=[];autosize=1;strokeColor=none;fillColor=none;" vertex="1" parent="iQ9Q4hPy6sdmXpYKyvZ4-42">
          <mxGeometry x="21" y="75" width="160" height="30" as="geometry" />
        </mxCell>
        <mxCell id="SIauwAjxDsFDXvZKgyOY-46" value="Game.controler" style="swimlane;whiteSpace=wrap;html=1;" vertex="1" parent="SIauwAjxDsFDXvZKgyOY-3">
          <mxGeometry x="100" y="110" width="330" height="270" as="geometry">
            <mxRectangle x="600" y="270" width="120" height="30" as="alternateBounds" />
          </mxGeometry>
        </mxCell>
        <mxCell id="SIauwAjxDsFDXvZKgyOY-48" value="Dependencies [User.service,&amp;nbsp; Game.service]" style="text;html=1;strokeColor=none;fillColor=none;align=left;verticalAlign=middle;whiteSpace=wrap;rounded=0;" vertex="1" parent="SIauwAjxDsFDXvZKgyOY-46">
          <mxGeometry x="10" y="30" width="310" height="35" as="geometry" />
        </mxCell>
        <mxCell id="SIauwAjxDsFDXvZKgyOY-55" value="/CurrentGames" style="text;html=1;strokeColor=none;fillColor=none;align=left;verticalAlign=middle;whiteSpace=wrap;rounded=0;" vertex="1" parent="SIauwAjxDsFDXvZKgyOY-46">
          <mxGeometry x="18" y="80" width="80" height="30" as="geometry" />
        </mxCell>
        <mxCell id="SIauwAjxDsFDXvZKgyOY-33" value="emit" style="text;html=1;strokeColor=none;fillColor=none;align=center;verticalAlign=middle;whiteSpace=wrap;rounded=0;" vertex="1" parent="1">
          <mxGeometry x="930" y="620" width="60" height="30" as="geometry" />
        </mxCell>
        <mxCell id="SIauwAjxDsFDXvZKgyOY-34" value="emit" style="text;html=1;strokeColor=none;fillColor=none;align=center;verticalAlign=middle;whiteSpace=wrap;rounded=0;" vertex="1" parent="1">
          <mxGeometry x="630" y="50" width="60" height="30" as="geometry" />
        </mxCell>
        <mxCell id="SIauwAjxDsFDXvZKgyOY-35" value="createGame" style="swimlane;whiteSpace=wrap;html=1;" vertex="1" parent="1">
          <mxGeometry x="150" y="-684" width="200" height="200" as="geometry" />
        </mxCell>
        <mxCell id="SIauwAjxDsFDXvZKgyOY-37" value="Loading" style="swimlane;whiteSpace=wrap;html=1;" vertex="1" parent="1">
          <mxGeometry x="440" y="-684" width="200" height="200" as="geometry" />
        </mxCell>
        <mxCell id="SIauwAjxDsFDXvZKgyOY-38" value="GameMode" style="swimlane;whiteSpace=wrap;html=1;" vertex="1" parent="1">
          <mxGeometry x="714" y="-684" width="200" height="200" as="geometry" />
        </mxCell>
        <mxCell id="SIauwAjxDsFDXvZKgyOY-57" style="edgeStyle=orthogonalEdgeStyle;rounded=0;orthogonalLoop=1;jettySize=auto;html=1;entryX=0.182;entryY=0;entryDx=0;entryDy=0;entryPerimeter=0;" edge="1" parent="1" source="SIauwAjxDsFDXvZKgyOY-40" target="SIauwAjxDsFDXvZKgyOY-46">
          <mxGeometry relative="1" as="geometry">
            <Array as="points">
              <mxPoint x="1190" y="-900" />
              <mxPoint x="-290" y="-900" />
            </Array>
          </mxGeometry>
        </mxCell>
        <mxCell id="SIauwAjxDsFDXvZKgyOY-39" value="SpecMode" style="swimlane;whiteSpace=wrap;html=1;" vertex="1" parent="1">
          <mxGeometry x="1350" y="-680" width="200" height="200" as="geometry" />
        </mxCell>
        <mxCell id="SIauwAjxDsFDXvZKgyOY-40" value="TabGame" style="swimlane;whiteSpace=wrap;html=1;" vertex="1" parent="1">
          <mxGeometry x="1110" y="-680" width="200" height="200" as="geometry" />
        </mxCell>
      </root>
    </mxGraphModel>
  </diagram>
</mxfile>
